<svg xmlns="http://www.w3.org/2000/svg" viewBox="0 0 256 256" width="32" height="32" role="img" aria-label="ACPC door key" preserveAspectRatio="xMidYMid meet">
  <defs>
    <linearGradient id="grad" x1="0%" y1="0%" x2="100%" y2="100%">
      <stop offset="0%" stop-color="#41D1FF"/>
      <stop offset="100%" stop-color="#BD34FE"/>
    </linearGradient>
    <mask id="notches">
      <rect width="256" height="256" fill="#fff"/>
      <!-- key notches -->
      <rect x="176" y="140" width="22" height="16" rx="2" fill="#000"/>
      <rect x="204" y="132" width="28" height="24" rx="2" fill="#000"/>
      <rect x="232" y="140" width="16" height="16" rx="2" fill="#000"/>
    </mask>
  </defs>

  <g mask="url(#notches)">
    <!-- key ring -->
    <path fill="url(#grad)" fill-rule="evenodd"
      d="M96 72a56 56 0 1 1 0 112a56 56 0 1 1 0-112Zm0 20a36 36 0 1 0 0 72a36 36 0 1 0 0-72Z"/>
    <!-- shaft -->
    <rect x="152" y="108" width="88" height="40" rx="10" fill="url(#grad)"/>
  </g>
</svg>
